<svg height='100px' width='100px'  fill="#23b6ff" xmlns="http://www.w3.org/2000/svg" xmlns:xlink="http://www.w3.org/1999/xlink" version="1.1" x="0px" y="0px" viewBox="0 0 512 512" style="enable-background:new 0 0 512 512;" xml:space="preserve"><g><g><g><g><g><path d="M282.253,486h-61.394c-2.606,0-4.776-2.002-4.984-4.601l-2.846-35.512c-10.755-3.034-21.057-7.297-30.709-12.709       l-27.093,23.072c-1.985,1.69-4.934,1.571-6.777-0.271l-43.377-43.378c-1.843-1.843-1.961-4.793-0.271-6.777l23.071-27.091       c-5.479-9.759-9.766-20.082-12.777-30.772l-35.435-2.783c-2.602-0.204-4.608-2.375-4.608-4.984v-61.395       c0-2.606,2.002-4.775,4.6-4.984l38.958-3.128c2.745-0.21,5.163,1.832,5.384,4.584c0.221,2.753-1.831,5.163-4.583,5.385       l-34.358,2.758v52.157l34.35,2.698c2.136,0.167,3.927,1.677,4.455,3.754c3.086,12.149,7.933,23.827,14.408,34.708       c1.094,1.838,0.897,4.17-0.49,5.799l-22.368,26.265l36.85,36.852l26.266-22.368c1.629-1.387,3.96-1.585,5.799-0.49       c10.732,6.388,22.389,11.213,34.646,14.342c2.071,0.528,3.577,2.314,3.747,4.445L225.474,476h52.156l2.698-34.417       c0.167-2.137,1.677-3.929,3.754-4.456c12.281-3.118,23.959-7.942,34.709-14.34c1.837-1.095,4.169-0.896,5.799,0.49       l26.265,22.368l36.851-36.852l-22.367-26.265c-1.388-1.63-1.584-3.961-0.49-5.799c6.396-10.749,11.221-22.426,14.341-34.708       c0.527-2.077,2.319-3.587,4.455-3.754l34.416-2.698v-52.156l-34.425-2.759c-2.753-0.221-4.806-2.631-4.585-5.384       c0.221-2.754,2.648-4.804,5.384-4.585l39.025,3.128c2.599,0.209,4.601,2.378,4.601,4.984v61.395       c0,2.609-2.008,4.78-4.609,4.984l-35.5,2.783c-3.027,10.78-7.291,21.101-12.711,30.771l23.071,27.093       c1.69,1.985,1.572,4.935-0.271,6.777l-43.377,43.378c-1.842,1.844-4.79,1.963-6.777,0.271l-27.093-23.072       c-9.67,5.421-19.992,9.685-30.771,12.712l-2.783,35.5C287.033,483.992,284.862,486,282.253,486z"></path></g><g><path d="M251.522,403.801c-52.019,0-94.339-42.32-94.339-94.339c0-2.762,2.239-5,5-5s5,2.238,5,5       c0,46.505,37.834,84.339,84.339,84.339c46.504,0,84.338-37.834,84.338-84.339c0-2.762,2.238-5,5-5s5,2.238,5,5       C345.86,361.48,303.541,403.801,251.522,403.801z"></path></g><g><path d="M251.522,362.463c-29.188,0-52.933-23.776-52.933-53.001c0-2.762,2.239-5,5-5s5,2.238,5,5       c0,23.711,19.26,43.001,42.933,43.001c23.71,0,43-19.29,43-43.001c0-2.762,2.238-5,5-5s5,2.238,5,5       C304.522,338.687,280.747,362.463,251.522,362.463z"></path></g></g><circle cx="41" cy="331" r="10"></circle><circle cx="411" cy="461" r="10"></circle><circle cx="451" cy="181" r="10"></circle><circle cx="71" cy="181" r="10"></circle><circle cx="131" cy="61" r="10"></circle><circle cx="121" cy="471" r="10"></circle><g><path d="M51,446c-13.785,0-25-11.215-25-25s11.215-25,25-25s25,11.215,25,25S64.785,446,51,446z M51,406      c-8.271,0-15,6.729-15,15s6.729,15,15,15s15-6.729,15-15S59.271,406,51,406z"></path></g><g><path d="M456,426c-16.542,0-30-13.458-30-30s13.458-30,30-30s30,13.458,30,30S472.542,426,456,426z M456,376      c-11.028,0-20,8.972-20,20s8.972,20,20,20s20-8.972,20-20S467.028,376,456,376z"></path></g><g><path d="M250.917,257.238c-2.761,0-5-2.239-5-5V144.625c0-12.371,10.064-22.435,22.435-22.435      c12.37,0,22.435,10.064,22.435,22.435c0,2.761-2.238,5-5,5s-5-2.239-5-5c0-6.856-5.578-12.435-12.435-12.435      s-12.435,5.578-12.435,12.435v107.613C255.917,255,253.678,257.238,250.917,257.238z"></path></g><g><path d="M250.917,149.625c-2.761,0-5-2.239-5-5c0-6.856-5.578-12.435-12.435-12.435c-6.857,0-12.435,5.578-12.435,12.435      c0,2.761-2.239,5-5,5s-5-2.239-5-5c0-12.371,10.064-22.435,22.435-22.435s22.435,10.064,22.435,22.435      C255.917,147.386,253.678,149.625,250.917,149.625z"></path></g><g><path d="M267.534,257.238h-33.21c-12.171,0-22.074-9.902-22.074-22.074c0-12.337-6.232-23.999-16.67-31.197      c-26.182-18.055-41.973-47.788-42.243-79.537c-0.456-53.524,42.695-97.675,96.19-98.42C304,25.271,348.5,69.312,348.5,123.583      c0,32.391-16.025,62.599-42.867,80.807c-10.05,6.817-16.05,18.331-16.05,30.798      C289.583,247.347,279.692,257.238,267.534,257.238z M250.917,36c-0.417,0-0.832,0.003-1.25,0.009      c-48.012,0.669-86.739,40.296-86.33,88.336c0.242,28.494,14.418,55.182,37.92,71.389c13.146,9.065,20.993,23.805,20.993,39.43      c0,6.658,5.417,12.074,12.074,12.074h33.21c6.644,0,12.049-5.406,12.049-12.05c0-15.786,7.64-30.393,20.437-39.073      c24.095-16.345,38.48-43.459,38.48-72.532C338.5,75.29,299.21,36,250.917,36z"></path></g><g><path d="M264.744,288.5h-27.655c-11.376,0-20.631-9.255-20.631-20.631s9.255-20.631,20.631-20.631h27.655      c11.376,0,20.631,9.255,20.631,20.631S276.12,288.5,264.744,288.5z M237.089,257.238c-5.862,0-10.631,4.769-10.631,10.631      s4.769,10.631,10.631,10.631h27.655c5.862,0,10.631-4.769,10.631-10.631s-4.769-10.631-10.631-10.631H237.089z"></path></g><g><path d="M401,246h-20c-2.762,0-5-2.239-5-5V128.583h-32.5c-2.762,0-5-2.239-5-5s2.238-5,5-5H381c2.762,0,5,2.239,5,5V236h15      c2.762,0,5,2.239,5,5S403.762,246,401,246z"></path></g><g><path d="M121,246h-20c-2.761,0-5-2.239-5-5s2.239-5,5-5h15V124.388c0-2.761,2.239-5,5-5h37.337c2.761,0,5,2.239,5,5      s-2.239,5-5,5H126V241C126,243.761,123.761,246,121,246z"></path></g><g><path d="M261,166h-20c-2.761,0-5-2.239-5-5s2.239-5,5-5h20c2.762,0,5,2.239,5,5S263.762,166,261,166z"></path></g><g><path d="M61,106c-13.785,0-25-11.215-25-25s11.215-25,25-25s25,11.215,25,25S74.785,106,61,106z M61,66c-8.271,0-15,6.729-15,15      s6.729,15,15,15s15-6.729,15-15S69.271,66,61,66z"></path></g><g><path d="M436,126c-16.542,0-30-13.458-30-30s13.458-30,30-30s30,13.458,30,30S452.542,126,436,126z M436,76      c-11.028,0-20,8.972-20,20s8.972,20,20,20s20-8.972,20-20S447.028,76,436,76z"></path></g></g></g></g></svg>