<svg height='100px' width='100px'  fill="#23b6ff" xmlns="http://www.w3.org/2000/svg" xmlns:xlink="http://www.w3.org/1999/xlink" version="1.1" x="0px" y="0px" viewBox="0 0 512 512" style="enable-background:new 0 0 512 512;" xml:space="preserve"><g><g><g><path d="M256,406L256,406c-5.523,0-10-4.478-10-10l0,0c0-5.521,4.477-10,10-10l0,0c5.523,0,10,4.479,10,10l0,0     C266,401.522,261.523,406,256,406z"></path><path d="M86,466L86,466c-5.523,0-10-4.478-10-10l0,0c0-5.521,4.477-10,10-10l0,0c5.523,0,10,4.479,10,10l0,0     C96,461.522,91.523,466,86,466z"></path><path d="M426,466L426,466c-5.523,0-10-4.478-10-10l0,0c0-5.521,4.477-10,10-10l0,0c5.523,0,10,4.479,10,10l0,0     C436,461.522,431.523,466,426,466z"></path><g><path d="M286,491h-60c-2.761,0-5-2.238-5-5v-60c0-2.762,2.239-5,5-5h60c2.762,0,5,2.238,5,5v60C291,488.762,288.762,491,286,491      z M231,481h50v-50h-50V481z"></path></g><g><path d="M336,491H176c-2.761,0-5-2.238-5-5s2.239-5,5-5h160c2.762,0,5,2.238,5,5S338.762,491,336,491z"></path></g><circle cx="276" cy="46" r="10"></circle><circle cx="356" cy="66" r="10"></circle><circle cx="186" cy="76" r="10"></circle><circle cx="56" cy="56" r="10"></circle><g><path d="M111,81c-11.028,0-20-8.972-20-20s8.972-20,20-20s20,8.972,20,20S122.028,81,111,81z M111,51c-5.514,0-10,4.486-10,10      s4.486,10,10,10s10-4.486,10-10S116.514,51,111,51z"></path></g><g><path d="M436,71c-13.785,0-25-11.215-25-25s11.215-25,25-25s25,11.215,25,25S449.785,71,436,71z M436,31      c-8.271,0-15,6.729-15,15s6.729,15,15,15s15-6.729,15-15S444.271,31,436,31z"></path></g><g><path d="M396,461h-70c-2.762,0-5-2.238-5-5s2.238-5,5-5h70c2.762,0,5,2.238,5,5S398.762,461,396,461z"></path></g><g><path d="M186,461h-70c-2.761,0-5-2.238-5-5s2.239-5,5-5h70c2.761,0,5,2.238,5,5S188.761,461,186,461z"></path></g><g><path d="M436,371H76c-2.761,0-5-2.238-5-5V136c0-2.761,2.239-5,5-5h360c2.762,0,5,2.239,5,5v230      C441,368.762,438.762,371,436,371z M81,361h350V141H81V361z"></path></g><g><path d="M440.334,431H71.667C54.757,431,41,417.243,41,400.334V131.667C41,114.757,54.757,101,71.667,101h368.666      c16.91,0,30.667,13.757,30.667,30.667v268.666C471,417.243,457.243,431,440.334,431z M71.667,111      C60.271,111,51,120.271,51,131.667v268.667C51,411.729,60.271,421,71.667,421h368.667c11.396,0,20.666-9.271,20.666-20.667      V131.667c0-11.396-9.271-20.667-20.667-20.667H71.667z"></path></g><g><path d="M396,331H286c-2.762,0-5-2.238-5-5v-80c0-2.761,2.238-5,5-5h110c2.762,0,5,2.239,5,5v80      C401,328.762,398.762,331,396,331z M291,321h100v-70H291V321z"></path></g><g><path d="M256,331H116c-2.761,0-5-2.238-5-5s2.239-5,5-5h140c2.762,0,5,2.238,5,5S258.762,331,256,331z"></path></g><g><path d="M256,301H116c-2.761,0-5-2.238-5-5s2.239-5,5-5h140c2.762,0,5,2.238,5,5S258.762,301,256,301z"></path></g><g><path d="M256,271H116c-2.761,0-5-2.238-5-5s2.239-5,5-5h140c2.762,0,5,2.238,5,5S258.762,271,256,271z"></path></g><g><path d="M256,241H116c-2.761,0-5-2.239-5-5s2.239-5,5-5h140c2.762,0,5,2.239,5,5S258.762,241,256,241z"></path></g><g><path d="M396,211H116c-2.761,0-5-2.239-5-5s2.239-5,5-5h280c2.762,0,5,2.239,5,5S398.762,211,396,211z"></path></g><g><path d="M396,181H116c-2.761,0-5-2.239-5-5s2.239-5,5-5h280c2.762,0,5,2.239,5,5S398.762,181,396,181z"></path></g></g></g></g></svg>