<svg id="Calque_1" data-name="Calque 1" xmlns="http://www.w3.org/2000/svg" xmlns:xlink="http://www.w3.org/1999/xlink" viewBox="0 0 506.51 507"><defs><style>.cls-1,.cls-2,.cls-3{fill:none;stroke-miterlimit:10;}.cls-1,.cls-2{stroke-width:15px;}.cls-1{stroke:url(#Dégradé_sans_nom_71);}.cls-2{stroke:url(#Dégradé_sans_nom_72);}.cls-3{stroke-width:20px;stroke:url(#Dégradé_sans_nom_77);}</style><linearGradient id="Dégradé_sans_nom_71" x1="80.25" y1="261.4" x2="242.4" y2="261.4" gradientUnits="userSpaceOnUse"><stop offset="0" stop-color="#9fd7eb"/><stop offset="0.23" stop-color="#a6cee6"/><stop offset="1" stop-color="#bcb5d7"/></linearGradient><linearGradient id="Dégradé_sans_nom_72" x1="248.15" y1="259.6" x2="451.33" y2="259.6" gradientUnits="userSpaceOnUse"><stop offset="0" stop-color="#d48fbc"/><stop offset="0.48" stop-color="#e3aabe"/><stop offset="1" stop-color="#f2c3bf"/></linearGradient><linearGradient id="Dégradé_sans_nom_77" x1="2.7" y1="256" x2="509.22" y2="256" gradientTransform="translate(509.22 509.5) rotate(180)" gradientUnits="userSpaceOnUse"><stop offset="0" stop-color="#efc0bf"/><stop offset="0.3" stop-color="#d48fbc"/><stop offset="0.58" stop-color="#bcb5d7"/><stop offset="0.68" stop-color="#b5bedc"/><stop offset="1" stop-color="#9fd7eb"/></linearGradient></defs><path class="cls-1" d="M214.74,187H130.51v54h70.41q9.79,0,14.61,4.4t4.83,11.73q0,7.35-4.9,11.66t-14.54,4.32H130.51v69.55q0,13.24-6,19.65a20.06,20.06,0,0,1-15.34,6.41,20.11,20.11,0,0,1-15.48-6.48q-6-6.48-6-19.58V180.26q0-9.21,2.73-15a17,17,0,0,1,8.57-8.5q5.83-2.66,14.9-2.66H214.74q10.23,0,15.19,4.53a15.36,15.36,0,0,1,5,11.88,15.53,15.53,0,0,1-5,12Q225,187,214.74,187Z" transform="translate(-2.78 -2)"/><path class="cls-2" d="M443.83,298.47q0,10.08-5,21.82t-15.63,23q-10.65,11.3-27.21,18.35t-38.59,7.06a135,135,0,0,1-30.38-3.17,85.23,85.23,0,0,1-24.83-9.86,83.85,83.85,0,0,1-20.52-17.64,104.78,104.78,0,0,1-14.26-22.25,116.21,116.21,0,0,1-8.85-26.27,143.08,143.08,0,0,1-3-29.66q0-25.48,7.41-45.65a97.57,97.57,0,0,1,21.24-34.48A92.52,92.52,0,0,1,316.7,158a104.91,104.91,0,0,1,39.59-7.49q25.63,0,45.65,10.22T432.6,186q10.66,15,10.66,28.44a18.58,18.58,0,0,1-5.18,13A16.46,16.46,0,0,1,425.55,233q-8.21,0-12.31-3.89t-9.15-13.39q-8.34-15.69-19.65-23.47t-27.86-7.77q-26.35,0-42,20T299,261.33q0,24.62,6.91,41t19.58,24.41q12.67,8.06,29.66,8.06,18.44,0,31.17-9.14t19.22-26.86a45.66,45.66,0,0,1,6.77-13.6q4-5.27,13-5.26a18.12,18.12,0,0,1,13.1,5.33A17.73,17.73,0,0,1,443.83,298.47Z" transform="translate(-2.78 -2)"/><path d="M200.37,295" transform="translate(-2.78 -2)"/><ellipse class="cls-3" cx="253.26" cy="253.5" rx="243.26" ry="243.5"/></svg>