<svg height='100px' width='100px'  fill="#23b6ff" xmlns="http://www.w3.org/2000/svg" xmlns:xlink="http://www.w3.org/1999/xlink" version="1.1" x="0px" y="0px" viewBox="0 0 512 512" style="enable-background:new 0 0 512 512;" xml:space="preserve"><g><g><g><g><path d="M161.685,176.439c-2.606,0-4.803-2.02-4.983-4.658c-0.228-3.322-0.343-6.613-0.343-9.781c0-77.748,63.252-141,141-141      c45.456,0,88.383,22.115,114.829,59.157c2.276,3.189,5.117,7.676,5.729,10.94c0.508,2.714-1.281,5.326-3.995,5.834      c-2.724,0.508-5.325-1.279-5.834-3.991c-0.168-0.781-1.53-3.458-4.038-6.973C379.475,51.549,339.59,31,297.357,31      c-72.233,0-131,58.767-131,131c0,2.94,0.107,6.001,0.32,9.097c0.189,2.755-1.891,5.141-4.646,5.33      C161.915,176.435,161.799,176.439,161.685,176.439z"></path></g><path d="M29.358,196L29.358,196c-5.523,0-10-4.477-10-10l0,0c0-5.523,4.477-10,10-10l0,0c5.523,0,10,4.477,10,10l0,0     C39.358,191.523,34.881,196,29.358,196z"></path><path d="M129.358,76L129.358,76c-5.523,0-10-4.477-10-10l0,0c0-5.523,4.477-10,10-10l0,0c5.523,0,10,4.477,10,10l0,0     C139.358,71.523,134.881,76,129.358,76z"></path><path d="M469.357,166L469.357,166c-5.523,0-10-4.477-10-10l0,0c0-5.523,4.477-10,10-10l0,0c5.523,0,10,4.477,10,10l0,0     C479.357,161.523,474.881,166,469.357,166z"></path><path d="M349.357,86L349.357,86c-5.523,0-10-4.477-10-10l0,0c0-5.523,4.477-10,10-10l0,0c5.523,0,10,4.477,10,10l0,0     C359.357,81.523,354.881,86,349.357,86z"></path><path d="M399.357,366L399.357,366c-5.523,0-10-4.477-10-10l0,0c0-5.523,4.477-10,10-10l0,0c5.523,0,10,4.477,10,10l0,0     C409.357,361.523,404.881,366,399.357,366z"></path><path d="M469.357,366L469.357,366c-5.523,0-10-4.477-10-10l0,0c0-5.523,4.477-10,10-10l0,0c5.523,0,10,4.477,10,10l0,0     C479.357,361.523,474.881,366,469.357,366z"></path><g><path d="M390.856,328.5c-0.896,0-1.798-0.241-2.6-0.729l-50.382-30.688c-13.109,3.928-26.728,5.917-40.518,5.917      c-22.746,0-44.467-5.256-64.56-15.621c-2.454-1.266-3.417-4.281-2.151-6.735c1.267-2.455,4.282-3.42,6.736-2.151      C256.043,288.119,276.222,293,297.357,293c13.531,0,26.883-2.061,39.683-6.124c1.378-0.438,2.878-0.257,4.113,0.495      l40.266,24.525l-12.643-35.509c-0.765-2.147,0.02-4.54,1.907-5.817c36.113-24.44,57.674-65.027,57.674-108.57      c0-11.477-2.424-25.33-4.692-34.468c-0.665-2.68,0.968-5.392,3.647-6.057c2.681-0.669,5.393,0.968,6.058,3.648      c3.123,12.579,4.987,26.365,4.987,36.877c0,45.57-21.938,88.13-58.88,114.63l16.09,45.193c0.711,1.994,0.088,4.22-1.555,5.556      C393.1,328.122,391.98,328.5,390.856,328.5z"></path></g><g><path d="M84.859,371c-1.204,0-2.397-0.434-3.337-1.276c-1.601-1.435-2.106-3.732-1.254-5.706l12.239-28.344      c-23.965-17.791-38.148-45.822-38.148-75.803c0-52.037,42.335-94.371,94.372-94.371s94.371,42.334,94.371,94.371      c0,52.037-42.334,94.372-94.371,94.372c-9,0-17.893-1.267-26.468-3.769L87.33,370.346C86.559,370.785,85.706,371,84.859,371z       M148.729,175.5c-46.522,0-84.372,37.849-84.372,84.371c0,28.045,13.886,54.186,37.146,69.927      c1.99,1.346,2.74,3.917,1.788,6.123l-7.922,18.347l23.816-13.549c1.212-0.69,2.657-0.843,3.985-0.42      c8.245,2.617,16.844,3.944,25.558,3.944c46.522,0,84.371-37.85,84.371-84.372S195.252,175.5,148.729,175.5z"></path></g><g><path d="M122.642,460.999L122.642,460.999c-2.761,0-5-2.238-5-5l0-60c0-2.762,2.239-5,5-5l0,0c2.761,0,5,2.238,5,5l0,60      C127.642,458.761,125.403,460.999,122.642,460.999z"></path></g><g><path d="M92.642,460.999c-2.761,0-5-2.238-5-5v-60c0-2.762,2.239-5,5-5s5,2.238,5,5v60      C97.642,458.761,95.403,460.999,92.642,460.999z"></path></g><g><path d="M422.643,460.999H69.358c-19.299,0-35-15.701-35-35s15.701-35,35-35l353.283-0.001c0.646,0,1.286,0.125,1.884,0.368      l70.002,28.476c1.854,0.754,3.078,2.54,3.115,4.54s-1.122,3.829-2.946,4.65l-70,31.525      C424.05,460.849,423.351,460.999,422.643,460.999z M421.662,400.998l-352.304,0.001c-13.785,0-25,11.215-25,25s11.215,25,25,25      h352.21l58.379-26.292L421.662,400.998z"></path></g><g><path d="M194.358,491h-80c-11.028,0-20-8.972-20-20s8.972-20,20-20h80c11.028,0,20,8.972,20,20S205.386,491,194.358,491z       M114.358,461c-5.514,0-10,4.486-10,10s4.486,10,10,10h80c5.514,0,10-4.486,10-10s-4.486-10-10-10H114.358z"></path></g><g><path d="M422.643,460.999c-2.762,0-5-2.238-5-5l-0.002-60.001c0-2.762,2.238-5,5-5s5,2.238,5,5l0.002,60.001      C427.643,458.761,425.404,460.999,422.643,460.999z"></path></g><g><path d="M329.357,461c-2.762,0-5-2.238-5-5v-60c0-2.762,2.238-5,5-5s5,2.238,5,5v60C334.357,458.762,332.119,461,329.357,461z"></path></g><g><path d="M489.358,112.012c-1.301,0-2.58-0.508-3.536-1.464l-66.439-66.44c-1.423-1.422-1.854-3.558-1.096-5.42      c0.758-1.863,2.558-3.09,4.568-3.115l65.625-0.814c0.021,0,0.042,0,0.063,0c1.304,0,2.558,0.509,3.492,1.421      c0.949,0.926,1.491,2.192,1.508,3.518l0.809,66.804c0.018,0.168,0.025,0.339,0.025,0.511c0,2.752-2.223,4.985-4.972,5      C489.39,112.012,489.374,112.012,489.358,112.012z M434.842,45.425l49.367,49.368l-0.605-49.974L434.842,45.425z"></path></g><g><path d="M281.734,211.672c-1.279,0-2.559-0.488-3.535-1.464l-24.917-24.914c-0.938-0.938-1.465-2.209-1.465-3.536      s0.527-2.598,1.464-3.536l62.288-62.288c1.951-1.952,5.119-1.952,7.07,0l29.686,29.685l87.82-87.82      c1.951-1.952,5.119-1.952,7.07,0c1.953,1.953,1.953,5.119,0,7.071l-91.355,91.355c-1.951,1.952-5.119,1.952-7.07,0      l-29.686-29.685l-55.217,55.217l17.846,17.843l33.836-33.837c0.938-0.938,2.209-1.464,3.535-1.464s2.598,0.527,3.535,1.464      l29.686,29.684L465.061,82.714c1.951-1.952,5.119-1.952,7.07,0c1.953,1.953,1.953,5.119,0,7.071l-116.27,116.27      c-0.938,0.938-2.209,1.464-3.535,1.464s-2.598-0.527-3.535-1.464l-29.686-29.684l-33.836,33.836      C284.294,211.184,283.014,211.672,281.734,211.672z"></path></g><g><path d="M149.358,241h-40c-2.761,0-5-2.239-5-5s2.239-5,5-5h40c2.761,0,5,2.239,5,5S152.119,241,149.358,241z"></path></g><g><path d="M189.358,271h-80c-2.761,0-5-2.238-5-5s2.239-5,5-5h80c2.761,0,5,2.238,5,5S192.119,271,189.358,271z"></path></g><g><path d="M189.358,301h-80c-2.761,0-5-2.238-5-5s2.239-5,5-5h80c2.761,0,5,2.238,5,5S192.119,301,189.358,301z"></path></g><g><path d="M69.358,151c-13.785,0-25-11.215-25-25s11.215-25,25-25s25,11.215,25,25S83.143,151,69.358,151z M69.358,111      c-8.271,0-15,6.729-15,15s6.729,15,15,15s15-6.729,15-15S77.629,111,69.358,111z"></path></g><g><path d="M454.357,321c-16.542,0-30-13.458-30-30s13.458-30,30-30s30,13.458,30,30S470.899,321,454.357,321z M454.357,271      c-11.028,0-20,8.972-20,20s8.972,20,20,20s20-8.972,20-20S465.386,271,454.357,271z"></path></g><g><path d="M279.357,401h-70c-2.761,0-5-2.238-5-5v-30c0-2.762,2.239-5,5-5h70c2.762,0,5,2.238,5,5v30      C284.357,398.762,282.119,401,279.357,401z M214.358,391h60v-20h-60V391z"></path></g><g><path d="M349.357,401h-70c-2.762,0-5-2.238-5-5v-30c0-2.762,2.238-5,5-5h70c2.762,0,5,2.238,5,5v30      C354.357,398.762,352.119,401,349.357,401z M284.357,391h60v-20h-60V391z"></path></g><g><path d="M349.357,371h-70c-2.762,0-5-2.238-5-5v-30c0-2.762,2.238-5,5-5h70c2.762,0,5,2.238,5,5v30      C354.357,368.762,352.119,371,349.357,371z M284.357,361h60v-20h-60V361z"></path></g><g><path d="M269.357,111h-50c-2.761,0-5-2.239-5-5s2.239-5,5-5h50c2.762,0,5,2.239,5,5S272.119,111,269.357,111z"></path></g><g><path d="M319.357,81h-60c-2.761,0-5-2.239-5-5s2.239-5,5-5h60c2.762,0,5,2.239,5,5S322.119,81,319.357,81z"></path></g></g></g></g></svg>