<svg height='100px' width='100px'  fill="#23b6ff" xmlns="http://www.w3.org/2000/svg" xmlns:xlink="http://www.w3.org/1999/xlink" version="1.1" x="0px" y="0px" viewBox="0 0 512 512" style="enable-background:new 0 0 512 512;" xml:space="preserve"><g><g><g><g><g><path d="M282.253,481h-61.394c-2.606,0-4.776-2.002-4.984-4.601l-2.846-35.512c-10.755-3.034-21.057-7.297-30.709-12.709       l-27.093,23.072c-1.985,1.69-4.934,1.571-6.777-0.271l-43.377-43.378c-1.843-1.843-1.961-4.793-0.271-6.777l23.071-27.091       c-5.479-9.759-9.766-20.082-12.777-30.772l-35.435-2.783c-2.602-0.204-4.608-2.375-4.608-4.984v-61.395       c0-2.606,2.002-4.775,4.6-4.984l38.958-3.128c2.745-0.214,5.163,1.832,5.384,4.584c0.221,2.753-1.831,5.163-4.583,5.385       l-34.358,2.758v52.157l34.35,2.698c2.136,0.167,3.927,1.677,4.455,3.754c3.086,12.149,7.933,23.827,14.408,34.708       c1.094,1.838,0.897,4.17-0.49,5.799l-22.368,26.265l36.85,36.852l26.266-22.368c1.629-1.386,3.96-1.584,5.799-0.49       c10.732,6.388,22.389,11.213,34.646,14.342c2.071,0.528,3.577,2.314,3.747,4.445L225.474,471h52.156l2.698-34.417       c0.167-2.137,1.677-3.929,3.754-4.456c12.281-3.118,23.959-7.942,34.709-14.34c1.837-1.094,4.169-0.896,5.799,0.49       l26.265,22.368l36.851-36.852l-22.367-26.265c-1.388-1.63-1.584-3.961-0.49-5.799c6.396-10.749,11.221-22.426,14.341-34.708       c0.527-2.077,2.319-3.587,4.455-3.754l34.416-2.698v-52.156l-34.425-2.759c-2.753-0.221-4.806-2.631-4.585-5.384       c0.221-2.754,2.648-4.801,5.384-4.585l39.025,3.128c2.599,0.209,4.601,2.378,4.601,4.984v61.395       c0,2.609-2.008,4.78-4.609,4.984l-35.5,2.783c-3.027,10.78-7.291,21.101-12.711,30.771l23.071,27.093       c1.69,1.985,1.572,4.935-0.271,6.777l-43.377,43.378c-1.842,1.845-4.79,1.963-6.777,0.271l-27.093-23.072       c-9.67,5.421-19.992,9.685-30.771,12.712l-2.783,35.5C287.033,478.992,284.862,481,282.253,481z"></path></g><g><path d="M251.522,398.801c-52.019,0-94.339-42.32-94.339-94.339c0-2.762,2.239-5,5-5s5,2.238,5,5       c0,46.505,37.834,84.339,84.339,84.339c46.504,0,84.338-37.834,84.338-84.339c0-2.762,2.238-5,5-5s5,2.238,5,5       C345.86,356.48,303.541,398.801,251.522,398.801z"></path></g><g><path d="M251.522,357.463c-29.188,0-52.933-23.776-52.933-53.001c0-2.762,2.239-5,5-5s5,2.238,5,5       c0,23.711,19.26,43.001,42.933,43.001c23.71,0,43-19.29,43-43.001c0-2.762,2.238-5,5-5s5,2.238,5,5       C304.522,333.687,280.747,357.463,251.522,357.463z"></path></g></g><circle cx="451" cy="76" r="10"></circle><circle cx="371" cy="56" r="10"></circle><circle cx="161" cy="56" r="10"></circle><circle cx="41" cy="156" r="10"></circle><circle cx="41" cy="326" r="10"></circle><circle cx="411" cy="456" r="10"></circle><circle cx="121" cy="466" r="10"></circle><g><path d="M341,261H162.111c-2.761,0-5-2.238-5-5v-54.111c0-37.863,30.804-68.666,68.667-68.666h51.556      c37.862,0,68.666,30.803,68.666,68.666V256C346,258.762,343.762,261,341,261z M167.111,251H336v-49.111      c0-32.349-26.317-58.666-58.666-58.666h-51.556c-32.349,0-58.667,26.317-58.667,58.666V251z"></path></g><g><path d="M211,261c-2.761,0-5-2.238-5-5v-28.333c0-2.761,2.239-5,5-5s5,2.239,5,5V256C216,258.762,213.761,261,211,261z"></path></g><g><path d="M291,261c-2.762,0-5-2.238-5-5v-28.333c0-2.761,2.238-5,5-5s5,2.239,5,5V256C296,258.762,293.762,261,291,261z"></path></g><g><path d="M442.111,241H341c-2.762,0-5-2.239-5-5v-25.556c0-28.489,23.178-51.667,51.667-51.667h7.777      c28.489,0,51.667,23.178,51.667,51.667V236C447.111,238.761,444.873,241,442.111,241z M346,231h91.111v-20.556      c0-22.975-18.691-41.667-41.667-41.667h-7.777c-22.976,0-41.667,18.692-41.667,41.667V231z"></path></g><g><path d="M391.555,168.778c-18.687,0-33.889-15.203-33.889-33.889c0-18.687,15.202-33.889,33.889-33.889      s33.89,15.203,33.89,33.889C425.444,153.575,410.241,168.778,391.555,168.778z M391.555,111      c-13.172,0-23.889,10.717-23.889,23.889s10.717,23.889,23.889,23.889c13.173,0,23.89-10.716,23.89-23.889      S404.728,111,391.555,111z"></path></g><g><path d="M371,241c-2.762,0-5-2.239-5-5v-21.667c0-2.761,2.238-5,5-5s5,2.239,5,5V236C376,238.761,373.762,241,371,241z"></path></g><g><path d="M411,241c-2.762,0-5-2.239-5-5v-21.667c0-2.761,2.238-5,5-5s5,2.239,5,5V236C416,238.761,413.762,241,411,241z"></path></g><g><path d="M162.112,241H61c-2.761,0-5-2.239-5-5v-25.556c0-28.489,23.178-51.667,51.667-51.667h7.778      c28.489,0,51.667,23.178,51.667,51.667V236C167.112,238.761,164.873,241,162.112,241z M66,231h91.112v-20.556      c0-22.975-18.692-41.667-41.667-41.667h-7.778C84.692,168.777,66,187.469,66,210.444V231z"></path></g><g><path d="M111.556,168.778c-18.687,0-33.889-15.203-33.889-33.889c0-18.687,15.203-33.889,33.889-33.889      c18.686,0,33.889,15.203,33.889,33.889C145.445,153.575,130.242,168.778,111.556,168.778z M111.556,111      c-13.172,0-23.889,10.717-23.889,23.889s10.717,23.889,23.889,23.889s23.889-10.716,23.889-23.889S124.729,111,111.556,111z"></path></g><g><path d="M91,241c-2.761,0-5-2.239-5-5v-21.667c0-2.761,2.239-5,5-5s5,2.239,5,5V236C96,238.761,93.761,241,91,241z"></path></g><g><path d="M131,241c-2.761,0-5-2.239-5-5v-21.667c0-2.761,2.239-5,5-5s5,2.239,5,5V236C136,238.761,133.761,241,131,241z"></path></g><g><path d="M251.556,143.222c-30.939,0-56.111-25.171-56.111-56.111c0-30.939,25.171-56.111,56.111-56.111      s56.111,25.171,56.111,56.111C307.667,118.051,282.495,143.222,251.556,143.222z M251.556,41      c-25.426,0-46.111,20.685-46.111,46.111s20.685,46.111,46.111,46.111s46.111-20.686,46.111-46.111S276.981,41,251.556,41z"></path></g><g><path d="M51,441c-13.785,0-25-11.215-25-25s11.215-25,25-25s25,11.215,25,25S64.785,441,51,441z M51,401      c-8.271,0-15,6.729-15,15s6.729,15,15,15s15-6.729,15-15S59.271,401,51,401z"></path></g><g><path d="M456,421c-16.542,0-30-13.458-30-30s13.458-30,30-30s30,13.458,30,30S472.542,421,456,421z M456,371      c-11.028,0-20,8.972-20,20s8.972,20,20,20s20-8.972,20-20S467.028,371,456,371z"></path></g></g></g></g></svg>